<svg id="Layer_1" data-name="Layer 1" xmlns="http://www.w3.org/2000/svg" viewBox="0 0 125 175"><defs><style>.cls-1{fill:#4c5c68;}.cls-2{fill:#c5c3c6;}.cls-3{font-size:9.5px;font-family:AmericanTypewriter-Bold, American Typewriter;font-weight:700;}.cls-11,.cls-3{fill:#95ddee;}.cls-4{letter-spacing:0.03em;}.cls-5{font-family:AmericanTypewriter, American Typewriter;font-weight:400;}.cls-6{letter-spacing:-0.01em;}.cls-7{letter-spacing:-0.02em;}.cls-8{letter-spacing:-0.01em;}.cls-9{letter-spacing:-0.06em;}.cls-10{letter-spacing:-0.1em;}</style></defs><rect class="cls-1" x="0.2" y="-0.04" width="125.4" height="175" rx="12.76"/><rect class="cls-2" x="35.6" y="91.96" width="55" height="4"/><text class="cls-3" transform="translate(10.72 127.85)">American <tspan class="cls-4" x="49.6" y="0">T</tspan><tspan x="56.42" y="0">ypewriter</tspan><tspan class="cls-5"><tspan x="-2.67" y="10">Joel Kaden &amp; </tspan><tspan class="cls-6" x="60.81" y="10">T</tspan><tspan x="66.73" y="10">o</tspan><tspan class="cls-7" x="71.92" y="10">n</tspan><tspan x="77.77" y="10">y </tspan><tspan class="cls-8" x="85.86" y="10">S</tspan><tspan x="91.62" y="10">tan</tspan><tspan class="cls-9" x="40.75" y="20">1</tspan><tspan x="46.18" y="20">9</tspan><tspan class="cls-10" x="52.23" y="20">7</tspan><tspan x="57.36" y="20">4</tspan></tspan></text><path class="cls-11" d="M50.72,59.81l-2.36-6.44a2.66,2.66,0,0,0-.82-1.31,3.9,3.9,0,0,0-1.74-.26H34.12a2.66,2.66,0,0,0-1.81.46A8.19,8.19,0,0,0,31,54.75l-1.9,5.06a3.93,3.93,0,0,0-.27,1.38c0,1.4.86,2.1,2.56,2.1.44,0,1.07,0,1.87-.13S34.71,63,35.1,63c1.79,0,2.69.77,2.69,2.3s-1,2.17-2.95,2.17a9.43,9.43,0,0,1-1.45-.14L30.11,67a26.34,26.34,0,0,0-3-.12c-1.53,0-2.6,0-3.22.11l-2.75.33a24.51,24.51,0,0,1-2.69.22c-1.71,0-2.56-.73-2.56-2.17S16.7,63,18.36,63a1.11,1.11,0,0,1,.79.27H20a3,3,0,0,0,2.69-1.39A15.75,15.75,0,0,0,24,58.81l12.2-33.12a4,4,0,0,1,4.14-2.77,3.87,3.87,0,0,1,4,2.75L56.1,58.23a13.09,13.09,0,0,0,2,4.07,3.39,3.39,0,0,0,2.62,1,2.58,2.58,0,0,0,.79-.09L63.39,63c1.66,0,2.5.73,2.5,2.17s-.84,2.3-2.5,2.3a15.7,15.7,0,0,1-1.9-.15,55.69,55.69,0,0,0-6.17-.51q-2.43,0-7.88.52a20.43,20.43,0,0,1-2.1.14c-1.75,0-2.63-.75-2.63-2.23S43.67,63,45.6,63a16.29,16.29,0,0,1,1.74.14c.77.08,1.35.13,1.74.13,1.45,0,2.17-.59,2.17-1.78A9.3,9.3,0,0,0,50.72,59.81ZM46,46.42,40.09,28.3l-6,18.12a2.26,2.26,0,0,0-.13.46c0,.39.33.59,1,.59H45.34c.52,0,.79-.17.79-.53A2.62,2.62,0,0,0,46,46.42Z"/><path class="cls-11" d="M102.55,68.08c-3.59,0-5.8-1.55-6.63-4.67q-3.35,4.94-10.5,4.93a13,13,0,0,1-8.5-2.62,8.66,8.66,0,0,1-3.18-7,8.49,8.49,0,0,1,4.66-8,11.5,11.5,0,0,1,3-1.28c.85-.2,2.57-.45,5.15-.76,3.68-.39,6.07-.94,7.19-1.64s1.67-2,1.67-3.87a5.19,5.19,0,0,0-1.87-4.24,8,8,0,0,0-5.22-1.54A10.06,10.06,0,0,0,82.86,39c-.65.44-1,.9-1,1.38,0,.17.19.39.59.66a2.55,2.55,0,0,1,.91,2.23,2.74,2.74,0,0,1-.95,2.16,3.44,3.44,0,0,1-2.39.86,3.83,3.83,0,0,1-2.86-1.19A4,4,0,0,1,76,42.22q0-3.67,3.65-6.3a14.63,14.63,0,0,1,8.82-2.63q12,0,12,11.46V58a27.75,27.75,0,0,0,.13,3.74c.26,1.52,1,2.29,2.23,2.29q2.3,0,2.3-4.17v-3.2c0-1.39.67-2.09,2-2.09s2.13,1.06,2.13,3.16v4.07Q109.12,68.08,102.55,68.08ZM95.27,55V50.35a8.59,8.59,0,0,1-3,1.85,31.12,31.12,0,0,1-5.72.92q-7.45.71-7.46,5.51a4.79,4.79,0,0,0,1.81,3.94A7.61,7.61,0,0,0,85.75,64a9.63,9.63,0,0,0,6.92-2.4A8.84,8.84,0,0,0,95.27,55Z"/></svg>