<svg id="Layer_1" data-name="Layer 1" xmlns="http://www.w3.org/2000/svg" viewBox="0 0 125 175"><defs><style>.cls-1{fill:#c5c3c6;}.cls-2{fill:#95ddee;}.cls-3{font-size:9.5px;font-family:Baskerville-Bold, Baskerville;font-weight:700;}.cls-3,.cls-9{fill:#4c5c68;}.cls-4{letter-spacing:-0.03em;}.cls-5{letter-spacing:0.01em;}.cls-6{letter-spacing:0em;}.cls-7{font-family:Baskerville;font-weight:400;}.cls-8{letter-spacing:-0.05em;}</style></defs><rect class="cls-1" x="0.2" y="-0.04" width="125.4" height="175" rx="12.76"/><rect class="cls-2" x="35.6" y="91.96" width="55" height="4"/><text class="cls-3" transform="translate(39.42 127.39)">Bas<tspan class="cls-4" x="16.43" y="0">k</tspan><tspan x="21.9" y="0">e</tspan><tspan class="cls-5" x="26.85" y="0">r</tspan><tspan class="cls-6" x="31.49" y="0">ville</tspan><tspan class="cls-7"><tspan class="cls-8" x="-5.31" y="10">J</tspan><tspan x="-2.39" y="10">ohn Baskerville</tspan><tspan x="15.7" y="20">1754</tspan></tspan></text><path class="cls-9" d="M46.73,50.69H28.83l-1.22,3q-2.71,6.49-2.71,8.48a3.77,3.77,0,0,0,1.44,3.21,5.9,5.9,0,0,0,3.7,1.1v1.6H16v-1.6a7.51,7.51,0,0,0,4.65-2.21c1-1.14,2.25-3.56,3.69-7.24.11-.35.67-1.7,1.67-4l13.69-32.7H41.1L56.84,57.71,59,62.65a6.54,6.54,0,0,0,2,2.62,7.14,7.14,0,0,0,3.7,1.2v1.6H46.14v-1.6a14,14,0,0,0,4.6-.5,2,2,0,0,0,1.2-2,20.11,20.11,0,0,0-1.6-4.56Zm-.59-1.56L37.79,29l-8.3,20.1Z"/><path class="cls-9" d="M106.71,62.86H108c-.21,4-2.15,5.94-5.84,5.94a5.37,5.37,0,0,1-3.74-1.25,6.34,6.34,0,0,1-1.79-3.72,36.82,36.82,0,0,1-6.34,3.72,13.1,13.1,0,0,1-5.13,1.25,7.73,7.73,0,0,1-5-1.67,5.36,5.36,0,0,1-2.08-4.41q0-3.59,3.49-6.26a42.65,42.65,0,0,1,9.65-5.21l5.38-2.19V47.67a16.79,16.79,0,0,0-.38-4.28,4.32,4.32,0,0,0-2-2.36A7.57,7.57,0,0,0,90.06,40c-3.47,0-5.41,1.16-5.8,3.48S82.92,47,81.34,47c-1.41,0-2.12-.68-2.12-2s.94-2.74,2.82-4.26,4.79-2.28,8.75-2.28a14,14,0,0,1,6.85,1.39A7.27,7.27,0,0,1,100.86,43a14.2,14.2,0,0,1,.78,5.42V59.94a19.19,19.19,0,0,0,.42,5.17,1.71,1.71,0,0,0,1.8,1.15Q106.16,66.26,106.71,62.86ZM96.63,50.69l-3.79,1.53q-9,3.64-9,9.17A5.24,5.24,0,0,0,85,64.92a3.73,3.73,0,0,0,3,1.34,8.67,8.67,0,0,0,3.79-1.08A26.8,26.8,0,0,0,96.63,62Z"/></svg>