<svg id="Layer_1" data-name="Layer 1" xmlns="http://www.w3.org/2000/svg" viewBox="0 0 125 175"><defs><style>.cls-1{fill:#95ddee;}.cls-2{fill:#c5c3c6;}.cls-3{fill:#4c5c68;}</style></defs><rect class="cls-1" x="0.25" y="0.4" width="125" height="175" rx="12.76"/><rect class="cls-2" x="35.25" y="92.4" width="55" height="4"/><path class="cls-3" d="M48.78,77.63v-3l3.09-.58V53.15H46.19l-.43,3.6H42.1V49.4H66.54v7.35H62.86l-.43-3.6H56.75V74.06l3.08.58v3Z"/><path class="cls-3" d="M75.07,75.85a5.6,5.6,0,0,1-4.17-1.51q-1.49-1.5-1.49-4.79V58H66.35V54.5h3.06V49.4h4.86v5.1h4.15V58H74.27V69.55a2.81,2.81,0,0,0,.56,1.94,1.92,1.92,0,0,0,1.5.62,9.22,9.22,0,0,0,1.21-.1c.45-.07.81-.13,1.08-.2l.5,3.44a16,16,0,0,1-2,.42A13,13,0,0,1,75.07,75.85Z"/></svg>