<svg id="Layer_1" data-name="Layer 1" xmlns="http://www.w3.org/2000/svg" viewBox="0 0 125 175"><defs><style>.cls-1{fill:#c5c3c6;}.cls-2{fill:#95ddee;}.cls-3{fill:#4c5c68;}</style></defs><rect class="cls-1" x="-0.25" y="0.4" width="125" height="175" rx="12.76"/><rect class="cls-2" x="34.75" y="92.4" width="55" height="4"/><path class="cls-3" d="M48.28,77.63v-3l3.09-.58V53.15H45.69l-.43,3.6H41.6V49.4H66v7.35H62.36l-.43-3.6H56.25V74.06l3.08.58v3Z"/><path class="cls-3" d="M74.57,78a5.64,5.64,0,0,1-4.17-1.5c-1-1-1.49-2.6-1.49-4.8V60.14H65.85V56.65h3.06V51.56h4.86v5.09h4.15v3.49H73.77V71.7a2.86,2.86,0,0,0,.56,2,2,2,0,0,0,1.5.61,7.77,7.77,0,0,0,1.21-.1c.45-.06.81-.13,1.08-.19l.5,3.43a14.34,14.34,0,0,1-2,.42A13,13,0,0,1,74.57,78Z"/></svg>