<svg id="Layer_1" data-name="Layer 1" xmlns="http://www.w3.org/2000/svg" viewBox="0 0 125 175"><defs><style>.cls-1{fill:#c5c3c6;}.cls-2{fill:#95ddee;}.cls-3{font-size:9.5px;font-family:FetteUNZFraktur, Fette UNZ Fraktur;}.cls-3,.cls-4{fill:#4c5c68;}</style></defs><rect class="cls-1" x="0.2" y="-0.04" width="125.4" height="175" rx="12.76"/><rect class="cls-2" x="35.6" y="91.96" width="55" height="4"/><text class="cls-3" transform="translate(36.57 128.39)">Fette Fraktur<tspan x="-8.86" y="10">Johann Christian </tspan><tspan x="16.11" y="20">Bauer</tspan><tspan x="18.09" y="30">1850</tspan></text><path class="cls-4" d="M50.39,33a9,9,0,0,1,3.33-3.65,19.3,19.3,0,0,1,4.53-2.09A22,22,0,0,1,62,26.53c1.22-.12,2.26-.18,3.11-.18v.9c-2,0-3.37.42-4,1.12a3.8,3.8,0,0,0-1.15,2.33,2,2,0,0,0-.06.48V56.26a12,12,0,0,0,.51,3.8c.35,1,.86,1.53,1.54,1.57a1.86,1.86,0,0,0,1-.36,5.94,5.94,0,0,0,1.21-1.15l1,.43-10,8.58q-3.57-1.69-4.66-3.87a13.8,13.8,0,0,1-1.08-6L38.49,69.13c-.2-.28-.51-.69-.94-1.21A12.75,12.75,0,0,0,36,66.29,16.4,16.4,0,0,0,33,64.08a8.28,8.28,0,0,0-3.41-1.18h-.43a4.92,4.92,0,0,0-2.9.85,8,8,0,0,0-2.53,3.08l-1-.54A22.52,22.52,0,0,1,25.56,62a18.55,18.55,0,0,1,2.72-2.63,5,5,0,0,1,.54-.46,4.89,4.89,0,0,0,.55-.45c.72-.52,1.44-1.09,2.14-1.69a19,19,0,0,0,2.21-2.3A7.6,7.6,0,0,0,35,50.94a35.56,35.56,0,0,0,.39-5.5V44.35c0-.36,0-.74-.06-1.15a54.38,54.38,0,0,0-.52-5.65,21.74,21.74,0,0,0-1.05-4.5,7,7,0,0,0-2.24-3.26,5.63,5.63,0,0,0-2.9-1.15h-.36a5.42,5.42,0,0,0-3.39,1.18,3.45,3.45,0,0,0-1.51,2.75,2.74,2.74,0,0,0,.09.66,3.76,3.76,0,0,0,.22.67A5.22,5.22,0,0,0,25,35.44a10.6,10.6,0,0,0,2.57,1.42,7.16,7.16,0,0,1,3.51,3.26,10.82,10.82,0,0,1,1.45,5.2v.3a8.8,8.8,0,0,1-2,5.26c-1.26,1.65-3.37,2.84-6.31,3.56v-1A10.87,10.87,0,0,0,27,52.36,5.44,5.44,0,0,0,28.58,51a1.68,1.68,0,0,0,.42-.66,2.21,2.21,0,0,0,.12-.67,1.24,1.24,0,0,0-.39-.88,2.05,2.05,0,0,0-1.18-.51,10.69,10.69,0,0,1-5.47-3.9A10.13,10.13,0,0,1,20,38.19a11,11,0,0,1,.12-1.6,10.61,10.61,0,0,1,.36-1.6,14.43,14.43,0,0,1,1.57-3.21,16,16,0,0,1,2.66-3,11.88,11.88,0,0,1,3.9-2.2,13.81,13.81,0,0,1,4.56-.76h.67a13.59,13.59,0,0,1,8.43,3.63q3.82,3.38,3.83,10.75,0,6.41-2.17,9a18.64,18.64,0,0,1-5.8,4.47c-.69.32-1.39.67-2.12,1.06s-1.49.77-2.29,1.17a19.25,19.25,0,0,1,1.87.49c.64.2,1.31.42,2,.66a21.88,21.88,0,0,1,4.32,2,6.41,6.41,0,0,1,2.75,3l4.78-4.35V38.19c0-.77,0-1.69-.15-2.78A33.09,33.09,0,0,0,48.76,32a26.58,26.58,0,0,0-.87-2.75,10.76,10.76,0,0,0-1.3-2.45l1-.54a8.59,8.59,0,0,1,1.94,3.23,33.76,33.76,0,0,1,.9,3.53Z"/><path class="cls-4" d="M93.47,37.22a6.88,6.88,0,0,0,1.27,1.42,18.59,18.59,0,0,0,2,1.54,24,24,0,0,0,3,1.85,26.7,26.7,0,0,0,3.35,1.48l.94.24.87.24v.85h-.78a2.18,2.18,0,0,0-1.94.72,2.83,2.83,0,0,0-.6,1.75V60.55A5,5,0,0,0,102,63a1.54,1.54,0,0,0,1.42.76,3.86,3.86,0,0,0,1.09-.18,7.69,7.69,0,0,0,1.33-.55v.85a36.2,36.2,0,0,0-3.69,2.81q-1.94,1.66-4.41,3.41l-.24-.24a.7.7,0,0,0-.18-.12,3.92,3.92,0,0,0-.66-.63c-.25-.18-.49-.38-.73-.58a21.7,21.7,0,0,1-2-2,3.88,3.88,0,0,1-1-2.42v-.12a.46.46,0,0,1,.06-.18v-.24a27.48,27.48,0,0,0-2.48,1.6c-.8.58-1.59,1.2-2.35,1.84S86.73,68.06,86,68.58s-1.37,1-2.05,1.51c-1.09-.72-2-1.36-2.63-1.9a9.64,9.64,0,0,1-1.6-1.6,4.55,4.55,0,0,1-.85-1.93,15.53,15.53,0,0,1-.18-2.6V47.8c0-.24,0-.51,0-.79A3.38,3.38,0,0,1,79,46.1a3.73,3.73,0,0,1,.94-1.35,5.89,5.89,0,0,1,2.14-1.24c.73-.33,1.54-.67,2.45-1s1.82-.77,2.75-1.21a29.37,29.37,0,0,0,3.38-1.78,15,15,0,0,0,2.84-2.21ZM87.31,61.51a4.38,4.38,0,0,0,.39,2.09,1.23,1.23,0,0,0,1.12.69,2.39,2.39,0,0,0,.63-.09,3.59,3.59,0,0,0,.7-.27l2.42-1.45V46.29a9.68,9.68,0,0,1-2.84-1.54,29.34,29.34,0,0,1-2.18-2l-.24-.24Z"/></svg>