<svg id="Layer_1" data-name="Layer 1" xmlns="http://www.w3.org/2000/svg" viewBox="0 0 125 175"><defs><style>.cls-1{fill:#c5c3c6;}.cls-2{fill:#95ddee;}.cls-3{font-size:9.5px;font-family:Futura-Bold, Futura;font-weight:700;}.cls-13,.cls-3{fill:#4c5c68;}.cls-4{letter-spacing:-0.01em;}.cls-5{letter-spacing:0em;}.cls-6{letter-spacing:0.01em;}.cls-7{letter-spacing:0em;}.cls-8{font-family:Futura-Medium, Futura;font-weight:500;}.cls-9{letter-spacing:-0.03em;}.cls-10{letter-spacing:-0.02em;}.cls-11{letter-spacing:-0.08em;}.cls-12{letter-spacing:-0.03em;}</style></defs><rect class="cls-1" x="0.2" y="-0.04" width="125.4" height="175" rx="12.76"/><rect class="cls-2" x="35.6" y="91.96" width="55" height="4"/><text class="cls-3" transform="translate(45.34 128.39)"><tspan class="cls-4">F<tspan class="cls-5" x="5.16" y="0">utu</tspan><tspan class="cls-6" x="21.41" y="0">r</tspan><tspan class="cls-7" x="25.9" y="0">a</tspan></tspan><tspan class="cls-8"><tspan class="cls-9" x="-9.27" y="10">P</tspan><tspan x="-4.39" y="10">aul </tspan><tspan class="cls-10" x="11.78" y="10">R</tspan><tspan x="17.34" y="10">enner</tspan><tspan class="cls-11" x="5.06" y="20">1</tspan><tspan x="10.15" y="20">9</tspan><tspan class="cls-12" x="16.02" y="20">2</tspan><tspan x="21.63" y="20">7</tspan></tspan></text><path class="cls-13" d="M49.42,56.76h-17L28,66.42H21.5L41.18,24.14l19,42.28H53.6ZM47,51.12l-5.9-13.53L34.89,51.12Z"/><path class="cls-13" d="M94,41.33h5.83V66.42H94V63.79a11.14,11.14,0,0,1-16.31-.41,14,14,0,0,1-3.37-9.58,13.58,13.58,0,0,1,3.37-9.41,10.91,10.91,0,0,1,8.45-3.76A10.66,10.66,0,0,1,94,44.24ZM80.2,53.8a8.72,8.72,0,0,0,1.93,5.87,6.32,6.32,0,0,0,5,2.29,6.64,6.64,0,0,0,5.2-2.21,8.59,8.59,0,0,0,2-5.82,8.6,8.6,0,0,0-2-5.83,6.57,6.57,0,0,0-5.15-2.24,6.41,6.41,0,0,0-5,2.27A8.38,8.38,0,0,0,80.2,53.8Z"/></svg>