<svg id="Layer_1" data-name="Layer 1" xmlns="http://www.w3.org/2000/svg" viewBox="0 0 125 175"><defs><style>.cls-1{fill:#c5c3c6;}.cls-2{fill:#95ddee;}.cls-3{font-size:9.5px;font-family:Gotham-Bold, Gotham;font-weight:700;}.cls-3,.cls-7{fill:#4c5c68;}.cls-4{font-family:Gotham-Book, Gotham;font-weight:400;}.cls-5{letter-spacing:-0.13em;}.cls-6{letter-spacing:-0.02em;}</style></defs><rect class="cls-1" x="0.2" y="-0.04" width="125.4" height="175" rx="12.76"/><rect class="cls-2" x="35.6" y="91.96" width="55" height="4"/><text class="cls-3" transform="translate(44.17 129.8)">Gotham<tspan class="cls-4"><tspan class="cls-5" x="-25.98" y="10">T</tspan><tspan x="-21.03" y="10">obias-F</tspan><tspan class="cls-6" x="14.25" y="10">r</tspan><tspan x="17.89" y="10">e</tspan><tspan class="cls-6" x="23.51" y="10">r</tspan><tspan x="27.15" y="10">e-Jones</tspan><tspan x="6.1" y="20">2000</tspan></tspan></text><path class="cls-7" d="M40.12,24.79h4.5L64.05,67.73H58.87l-5-11.27H30.67L25.62,67.73H20.69ZM52,52.08,42.31,30.4,32.56,52.08Z"/><path class="cls-7" d="M78.35,58.6v-.13c0-6.63,5.48-10.17,13.46-10.17a33.46,33.46,0,0,1,9.68,1.34V48.55c0-5.67-3.47-8.59-9.38-8.59a21.92,21.92,0,0,0-9.56,2.31l-1.4-3.83A25.9,25.9,0,0,1,92.6,35.82c4.45,0,7.86,1.15,10.17,3.47,2.13,2.13,3.23,5.18,3.23,9.2V67.73h-4.51V63A13.79,13.79,0,0,1,90.1,68.4C84.26,68.4,78.35,65.05,78.35,58.6Zm23.2-2.44v-3a32.8,32.8,0,0,0-9.25-1.34c-5.91,0-9.2,2.56-9.2,6.52v.12c0,4,3.65,6.28,7.92,6.28C96.8,64.69,101.55,61.15,101.55,56.16Z"/></svg>