<svg id="Layer_1" data-name="Layer 1" xmlns="http://www.w3.org/2000/svg" viewBox="0 0 125 175"><defs><style>.cls-1{fill:#4c5c68;}.cls-2{fill:#c5c3c6;}.cls-3{fill:#95ddee;}</style></defs><rect class="cls-1" x="0.2" y="-0.04" width="125.4" height="175" rx="12.76"/><rect class="cls-2" x="35.6" y="91.96" width="55" height="4"/><path class="cls-3" d="M44.68,126.49v0A3.41,3.41,0,0,1,48.17,123a3.65,3.65,0,0,1,2.61.91l-.92,1.11a2.48,2.48,0,0,0-1.74-.67,2,2,0,0,0-1.91,2.07v0a2,2,0,0,0,2,2.11,2.3,2.3,0,0,0,1.38-.4v-1H48.13V126H51v2.89a4.33,4.33,0,0,1-2.84,1A3.32,3.32,0,0,1,44.68,126.49Z"/><path class="cls-3" d="M52,127.28v0a2.68,2.68,0,0,1,2.77-2.65,2.65,2.65,0,0,1,2.75,2.63v0a2.68,2.68,0,0,1-2.77,2.65A2.65,2.65,0,0,1,52,127.28Zm4.09,0v0a1.36,1.36,0,0,0-1.34-1.41,1.3,1.3,0,0,0-1.32,1.39v0a1.36,1.36,0,0,0,1.34,1.41A1.31,1.31,0,0,0,56.11,127.28Z"/><path class="cls-3" d="M58.81,128.35v-2.41h-.6V124.7h.6v-1.3h1.45v1.3h1.2v1.24h-1.2v2.18c0,.33.14.49.46.49a1.54,1.54,0,0,0,.72-.18v1.16a2.16,2.16,0,0,1-1.14.29C59.41,129.88,58.81,129.53,58.81,128.35Z"/><path class="cls-3" d="M62.52,122.86H64v2.56a1.83,1.83,0,0,1,1.5-.81,1.67,1.67,0,0,1,1.73,1.89v3.3H65.74V127c0-.69-.32-1-.87-1s-.91.35-.91,1v2.84H62.52Z"/><path class="cls-3" d="M68.13,128.33v0c0-1.11.85-1.62,2.06-1.62a3.45,3.45,0,0,1,1.24.21v-.09c0-.6-.37-.93-1.09-.93a3.81,3.81,0,0,0-1.41.28l-.36-1.11a4.6,4.6,0,0,1,2-.4,2.31,2.31,0,0,1,1.72.57,2.21,2.21,0,0,1,.55,1.62v3h-1.4v-.55a1.94,1.94,0,0,1-1.54.64A1.58,1.58,0,0,1,68.13,128.33Zm3.32-.33v-.26a2.31,2.31,0,0,0-.92-.19c-.62,0-1,.25-1,.71v0c0,.39.32.61.79.61C71,128.89,71.45,128.52,71.45,128Z"/><path class="cls-3" d="M74.06,124.7h1.45v.72a1.83,1.83,0,0,1,1.5-.81,1.51,1.51,0,0,1,1.43.81,2.09,2.09,0,0,1,1.68-.81c1.07,0,1.72.64,1.72,1.87v3.32H80.39V127c0-.69-.3-1-.84-1s-.88.35-.88,1v2.84H77.23V127c0-.69-.31-1-.85-1s-.87.35-.87,1v2.84H74.06Z"/><path class="cls-3" d="M20.89,133.84H18.66v-.7h5.23v.7H21.66v6h-.77Z"/><path class="cls-3" d="M23.66,137.36h0a2.56,2.56,0,0,1,5.12,0v0a2.55,2.55,0,0,1-2.58,2.56A2.51,2.51,0,0,1,23.66,137.36Zm4.37,0h0a1.87,1.87,0,0,0-1.83-1.93,1.82,1.82,0,0,0-1.79,1.91v0a1.85,1.85,0,0,0,1.81,1.91A1.82,1.82,0,0,0,28,137.36Z"/><path class="cls-3" d="M30.83,138.86v.94H30.1v-6.94h.73v3a2.21,2.21,0,0,1,1.88-1.09,2.4,2.4,0,0,1,2.35,2.55v0a2.4,2.4,0,0,1-2.35,2.55A2.22,2.22,0,0,1,30.83,138.86Zm3.48-1.51h0a1.78,1.78,0,0,0-1.73-1.91,1.84,1.84,0,0,0-1.78,1.9v0a1.83,1.83,0,0,0,1.78,1.9A1.74,1.74,0,0,0,34.31,137.35Z"/><path class="cls-3" d="M36.42,133h.84v.81h-.84Zm0,1.88h.73v4.92h-.73Z"/><path class="cls-3" d="M38.53,138.37v0c0-1,.86-1.58,2.1-1.58a5.31,5.31,0,0,1,1.51.2v-.17c0-.88-.54-1.34-1.46-1.34a3.52,3.52,0,0,0-1.49.36l-.22-.59a4,4,0,0,1,1.79-.41,2.15,2.15,0,0,1,1.58.54,1.91,1.91,0,0,1,.51,1.43v3h-.71v-.74a2.16,2.16,0,0,1-1.77.84A1.65,1.65,0,0,1,38.53,138.37Zm3.62-.38v-.47a4.88,4.88,0,0,0-1.44-.21c-.92,0-1.44.4-1.44,1v0c0,.62.57,1,1.24,1A1.48,1.48,0,0,0,42.15,138Z"/><path class="cls-3" d="M44,139.17l.38-.52a2.86,2.86,0,0,0,1.7.63c.59,0,1-.31,1-.78v0c0-.5-.58-.69-1.22-.87s-1.63-.48-1.63-1.39v0a1.49,1.49,0,0,1,1.68-1.4,3.37,3.37,0,0,1,1.76.54l-.33.55a2.82,2.82,0,0,0-1.45-.47c-.58,0-1,.3-1,.71v0c0,.46.6.64,1.26.84s1.58.53,1.58,1.41v0c0,.93-.77,1.47-1.75,1.47A3.4,3.4,0,0,1,44,139.17Z"/><path class="cls-3" d="M48.93,136.56h2.65v.77H48.93Z"/><path class="cls-3" d="M53.13,133.14h4.79v.7h-4v2.37h3.61v.69H53.88v2.9h-.75Z"/><path class="cls-3" d="M59.24,134.88H60v1.29a2.11,2.11,0,0,1,2-1.37v.79h-.06a2,2,0,0,0-2,2.25v2h-.73Z"/><path class="cls-3" d="M62.57,137.35h0a2.43,2.43,0,0,1,2.36-2.56,2.33,2.33,0,0,1,2.29,2.59,1.77,1.77,0,0,1,0,.24H63.32a1.71,1.71,0,0,0,1.73,1.67,2,2,0,0,0,1.55-.7l.45.41a2.53,2.53,0,0,1-2,.92A2.45,2.45,0,0,1,62.57,137.35Zm3.91-.28a1.61,1.61,0,0,0-1.57-1.67,1.69,1.69,0,0,0-1.59,1.67Z"/><path class="cls-3" d="M68.5,134.88h.73v1.29a2.11,2.11,0,0,1,2-1.37v.79h-.06a2,2,0,0,0-2,2.25v2H68.5Z"/><path class="cls-3" d="M71.83,137.35h0a2.43,2.43,0,0,1,2.36-2.56,2.33,2.33,0,0,1,2.29,2.59,1.77,1.77,0,0,1,0,.24H72.58a1.71,1.71,0,0,0,1.73,1.67,2,2,0,0,0,1.55-.7l.45.41a2.53,2.53,0,0,1-2,.92A2.45,2.45,0,0,1,71.83,137.35Zm3.91-.28a1.61,1.61,0,0,0-1.57-1.67,1.69,1.69,0,0,0-1.59,1.67Z"/><path class="cls-3" d="M77.56,136.56h2.65v.77H77.56Z"/><path class="cls-3" d="M81.12,138.71l.54-.46a1.71,1.71,0,0,0,1.52.95c.75,0,1.3-.54,1.3-1.6v-4.46h.76v4.45a2.4,2.4,0,0,1-.61,1.75,2,2,0,0,1-1.46.55A2.26,2.26,0,0,1,81.12,138.71Z"/><path class="cls-3" d="M86.59,137.36h0a2.56,2.56,0,1,1,5.12,0v0a2.55,2.55,0,0,1-2.57,2.56A2.52,2.52,0,0,1,86.59,137.36Zm4.37,0h0a1.87,1.87,0,0,0-1.82-1.93,1.82,1.82,0,0,0-1.8,1.91v0a1.85,1.85,0,0,0,1.82,1.91A1.82,1.82,0,0,0,91,137.36Z"/><path class="cls-3" d="M93,134.88h.73v.86a1.86,1.86,0,0,1,1.68-1,1.8,1.8,0,0,1,1.89,2v3.05h-.74v-2.87a1.31,1.31,0,0,0-1.35-1.49A1.45,1.45,0,0,0,93.76,137v2.82H93Z"/><path class="cls-3" d="M98.58,137.35h0a2.43,2.43,0,0,1,2.36-2.56,2.34,2.34,0,0,1,2.29,2.59,1.77,1.77,0,0,1,0,.24h-3.9a1.71,1.71,0,0,0,1.73,1.67,2,2,0,0,0,1.55-.7l.46.41a2.56,2.56,0,0,1-2,.92A2.44,2.44,0,0,1,98.58,137.35Zm3.9-.28a1.61,1.61,0,0,0-1.56-1.67,1.69,1.69,0,0,0-1.6,1.67Z"/><path class="cls-3" d="M104.1,139.17l.37-.52a2.86,2.86,0,0,0,1.7.63c.59,0,1-.31,1-.78v0c0-.5-.58-.69-1.23-.87s-1.63-.48-1.63-1.39v0a1.49,1.49,0,0,1,1.68-1.4,3.4,3.4,0,0,1,1.77.54l-.34.55a2.8,2.8,0,0,0-1.45-.47c-.58,0-.95.3-.95.71v0c0,.46.61.64,1.26.84s1.58.53,1.58,1.41v0c0,.93-.77,1.47-1.75,1.47A3.35,3.35,0,0,1,104.1,139.17Z"/><path class="cls-3" d="M50.73,149.22l2.41-2.13c1-.91,1.39-1.43,1.39-2.09a1.28,1.28,0,0,0-1.34-1.28,2.15,2.15,0,0,0-1.79,1.14l-.55-.4a2.64,2.64,0,0,1,2.4-1.41,1.91,1.91,0,0,1,2.06,1.88v0c0,1-.51,1.57-1.68,2.59l-1.78,1.57h3.53v.69H50.73Z"/><path class="cls-3" d="M56.55,146.49v0c0-1.86,1.12-3.44,2.83-3.44s2.79,1.56,2.79,3.42v0c0,1.86-1.1,3.44-2.81,3.44S56.55,148.35,56.55,146.49Zm4.84,0v0c0-1.45-.8-2.76-2-2.76s-2,1.28-2,2.74v0c0,1.45.8,2.76,2.05,2.76S61.39,147.94,61.39,146.49Z"/><path class="cls-3" d="M63.34,146.49v0c0-1.86,1.12-3.44,2.83-3.44S69,144.59,69,146.45v0c0,1.86-1.1,3.44-2.81,3.44S63.34,148.35,63.34,146.49Zm4.84,0v0c0-1.45-.8-2.76-2-2.76s-2,1.28-2,2.74v0c0,1.45.8,2.76,2,2.76S68.18,147.94,68.18,146.49Z"/><path class="cls-3" d="M70.14,146.49v0c0-1.86,1.11-3.44,2.82-3.44s2.8,1.56,2.8,3.42v0c0,1.86-1.11,3.44-2.82,3.44S70.14,148.35,70.14,146.49Zm4.84,0v0c0-1.45-.8-2.76-2-2.76s-2,1.28-2,2.74v0c0,1.45.8,2.76,2,2.76S75,147.94,75,146.49Z"/><path class="cls-3" d="M40.12,24.79h4.5L64.05,67.73H58.87l-5-11.27H30.67L25.62,67.73H20.69ZM52,52.08,42.31,30.4,32.56,52.08Z"/><path class="cls-3" d="M78.35,58.6v-.13c0-6.63,5.48-10.17,13.46-10.17a33.46,33.46,0,0,1,9.68,1.34V48.55c0-5.67-3.47-8.59-9.38-8.59a21.92,21.92,0,0,0-9.56,2.31l-1.4-3.83A25.9,25.9,0,0,1,92.6,35.82c4.45,0,7.86,1.15,10.17,3.47,2.13,2.13,3.23,5.18,3.23,9.2V67.73h-4.51V63A13.79,13.79,0,0,1,90.1,68.4C84.26,68.4,78.35,65.05,78.35,58.6Zm23.2-2.44v-3a32.8,32.8,0,0,0-9.25-1.34c-5.91,0-9.2,2.56-9.2,6.52v.12c0,4,3.65,6.28,7.92,6.28C96.8,64.69,101.55,61.15,101.55,56.16Z"/></svg>