<svg id="Layer_1" data-name="Layer 1" xmlns="http://www.w3.org/2000/svg" viewBox="0 0 125 175"><defs><style>.cls-1{fill:#4c5c68;}.cls-2,.cls-4{fill:#95ddee;}.cls-3{fill:#c5c3c6;}.cls-4{font-size:9.5px;font-family:Helvetica-Bold, Helvetica;font-weight:700;}.cls-5{font-family:Helvetica;font-weight:400;}</style></defs><rect class="cls-1" x="0.2" y="-0.04" width="125.4" height="175" rx="12.76"/><path class="cls-2" d="M37.53,24.48h6.53L59.53,67.13H53.2L48.88,54.36H32L27.39,67.13H21.47ZM47,49.66,40.55,30.81,33.66,49.66Z"/><path class="cls-2" d="M94,48.32a2.86,2.86,0,0,0,2.41-1.51,4.68,4.68,0,0,0,.35-2,4.27,4.27,0,0,0-1.9-3.89,10.13,10.13,0,0,0-5.44-1.21q-4.08,0-5.79,2.21a7.41,7.41,0,0,0-1.25,3.65H77.54c.09-3.84,1.33-6.52,3.72-8a15.31,15.31,0,0,1,8.31-2.26,16.92,16.92,0,0,1,8.9,2.09,7.1,7.1,0,0,1,3.4,6.51V61.79a2.31,2.31,0,0,0,.33,1.31c.22.33.69.49,1.41.49a7.54,7.54,0,0,0,.78,0c.29,0,.6-.07.93-.13v3.86a13.2,13.2,0,0,1-1.86.43,13,13,0,0,1-1.74.09,4.31,4.31,0,0,1-3.92-1.91A7.64,7.64,0,0,1,96.9,63a13.07,13.07,0,0,1-4.59,3.63,14.13,14.13,0,0,1-6.59,1.54,9.85,9.85,0,0,1-7.07-2.62A8.71,8.71,0,0,1,75.91,59a8.45,8.45,0,0,1,2.7-6.7,12.84,12.84,0,0,1,7.08-2.93ZM83,62.43a6.16,6.16,0,0,0,3.92,1.31,11.92,11.92,0,0,0,5.34-1.28,7.17,7.17,0,0,0,4.36-6.93v-4.2a8.84,8.84,0,0,1-2.46,1,20.33,20.33,0,0,1-3,.58l-3.16.41a12,12,0,0,0-4.27,1.19,4.61,4.61,0,0,0-2.42,4.34A4.29,4.29,0,0,0,83,62.43Z"/><rect class="cls-3" x="35.6" y="91.96" width="55" height="4"/><text class="cls-4" transform="translate(44.76 128.39)">Helvetica<tspan class="cls-5"><tspan x="-10.29" y="10">Max Miedinger</tspan><tspan x="10.29" y="20">1957</tspan></tspan></text></svg>