<svg id="Layer_1" data-name="Layer 1" xmlns="http://www.w3.org/2000/svg" viewBox="0 0 125 175"><defs><style>.cls-1{fill:#c5c3c6;}.cls-2{fill:#95ddee;}.cls-3{font-size:9.5px;font-family:Rockwell-Bold, Rockwell;font-weight:700;}.cls-3,.cls-7{fill:#4c5c68;}.cls-4{letter-spacing:-0.02em;}.cls-5{letter-spacing:-0.04em;}.cls-6{font-family:Rockwell-Regular, Rockwell;font-weight:400;}</style></defs><rect class="cls-1" x="0.2" y="-0.04" width="125.4" height="175" rx="12.76"/><rect class="cls-2" x="35.6" y="91.96" width="55" height="4"/><text class="cls-3" transform="translate(41.53 129.39)"><tspan class="cls-4">R</tspan><tspan x="7.3" y="0">ock</tspan><tspan class="cls-5" x="25.23" y="0">w</tspan><tspan x="33.55" y="0">ell</tspan><tspan class="cls-6"><tspan x="-0.96" y="10">Monotype</tspan><tspan x="11.94" y="20">1934</tspan></tspan></text><path class="cls-7" d="M50.11,31l11.2,31.22h4.61v5.16H49.61V62.21H55l-3.21-9.39h-15l-3.21,9.39h5.24v5.16H22.41V62.21h5L38.55,31h-5V26H55.07v5Zm-5.66,0h-.19L38.41,48H50.16Z"/><path class="cls-7" d="M100.77,48.7V62.32h4.83v5.05H95.77V63.82a12.77,12.77,0,0,1-9.16,4,9.86,9.86,0,0,1-4.88-1.23,10,10,0,0,1-3.54-3.31,8.68,8.68,0,0,1,.14-9.45,9.58,9.58,0,0,1,4-3.27,11.9,11.9,0,0,1,5-1.16,13.86,13.86,0,0,1,7.88,2.47v-3.1q0-3.37-1.43-4.83t-4.7-1.46a8.12,8.12,0,0,0-3.85.84,6.66,6.66,0,0,0-2.57,2.54l-5.44-1.34a12.17,12.17,0,0,1,5-5.12,15.42,15.42,0,0,1,7.44-1.69q5.8,0,8.47,2.63T100.77,48.7ZM87.37,63.5A11.24,11.24,0,0,0,95.2,60V56.64a12,12,0,0,0-7.42-2.89,5.75,5.75,0,0,0-3.88,1.42,4.48,4.48,0,0,0-1.63,3.55,4.53,4.53,0,0,0,1.42,3.42A5.16,5.16,0,0,0,87.37,63.5Z"/></svg>