<svg id="Layer_1" data-name="Layer 1" xmlns="http://www.w3.org/2000/svg" viewBox="0 0 125 175"><defs><style>.cls-1{fill:#4c5c68;}.cls-2{fill:#c5c3c6;}.cls-3{font-size:9px;font-family:Zapfino;}.cls-3,.cls-7{fill:#95ddee;}.cls-4{letter-spacing:-0.1em;}.cls-5{letter-spacing:0em;}.cls-6{letter-spacing:-0.11em;}</style></defs><rect class="cls-1" x="0.2" y="-0.04" width="125.4" height="175" rx="12.76"/><rect class="cls-2" x="35.6" y="91.96" width="55" height="4"/><text class="cls-3" transform="translate(37.27 125.39)"><tspan class="cls-4">Z<tspan class="cls-5" x="8.89" y="0">apfino</tspan></tspan><tspan x="-18.44" y="15">Hermann </tspan><tspan class="cls-6" x="34.01" y="15">Z</tspan><tspan x="42.9" y="15">apf</tspan><tspan x="5.79" y="30">1998</tspan></text><path class="cls-7" d="M14,70.74a5.06,5.06,0,0,1,1.28-3.07,45,45,0,0,1,3.16-3.26Q36.54,47.49,47.7,37.71T62,25.75a7.9,7.9,0,0,1,2.27-.85A4.58,4.58,0,0,0,66.32,24c.37-.38.58-.42.61-.14a1.38,1.38,0,0,1-.14.8,12.22,12.22,0,0,0-1.51,3.26A23,23,0,0,0,64.52,31c-.06.25-.24,1.09-.52,2.5s-.61,3.15-1,5.2-.77,4.25-1.18,6.61S61,49.9,60.64,52.07s-.67,4.13-.89,5.86-.37,3-.43,3.64a7.57,7.57,0,0,0,.33,2.51,3.25,3.25,0,0,0,.81,1.32,2,2,0,0,0,.94.52,4.53,4.53,0,0,0,.76.1,6,6,0,0,0,1.13-.15c.44-.09.91-.2,1.42-.33s.77-.09.8.09-.2.35-.7.48c-.26.06-.71.19-1.38.38l-2.26.66c-.86.25-1.71.49-2.56.71s-1.59.39-2.22.52q-1.41,0-1.89-1.89c.06-.38.19-1.19.38-2.41s.39-2.54.61-3.93.43-2.69.62-3.92a20.12,20.12,0,0,0,.28-2.41,3.24,3.24,0,0,0-1-2.13,5.7,5.7,0,0,0-2.88-1.56A14.19,14.19,0,0,0,50,49.85q-1.89-.09-4.53-.09c-1.83,0-3.63,0-5.39,0a33.58,33.58,0,0,1-4-.24Q28.89,56,24,61.38a90.34,90.34,0,0,0-7.33,9,11.14,11.14,0,0,0-1.08,2.22,13,13,0,0,0-.52,2.6c-.13.38-.32.47-.57.29ZM38.34,47.68c.06.38.47.66,1.23.85a15.38,15.38,0,0,0,2.69.38c1,.06,2.13.09,3.26.09h2.84c2,0,3.65,0,4.91,0a14.53,14.53,0,0,1,2.65.23,3.55,3.55,0,0,0,1.09.24c.09,0,.2-.27.33-.71q.38-1.89.94-5.1l1.14-6.43q.57-3.21,1-5.63c.28-1.6.46-2.53.52-2.78q.18-.77,0-.81c-.13,0-.44.15-1,.52-.18.13-.72.56-1.6,1.28s-2,1.65-3.36,2.79l-4.44,3.73c-1.61,1.36-3.18,2.71-4.73,4.07s-3,2.66-4.3,3.92S39.16,46.73,38.34,47.68Z"/><path class="cls-7" d="M112,55q-2.18,2.65-4.77,5.34A63.28,63.28,0,0,1,102,65.16a29,29,0,0,1-5.25,3.5A10.64,10.64,0,0,1,92,70,3.23,3.23,0,0,1,89.31,69a3.68,3.68,0,0,1-.75-2.36,11,11,0,0,1,.8-3.55,25.44,25.44,0,0,1,2.41-4.77q-1.23,1.61-2.83,3.4A37.53,37.53,0,0,1,85.63,65a22.73,22.73,0,0,1-3.41,2.46,6.17,6.17,0,0,1-3,1,1.75,1.75,0,0,1-2-2A12.59,12.59,0,0,1,78.92,61a28.13,28.13,0,0,1,4.58-6.39,30.75,30.75,0,0,1,6.57-5.29,14.65,14.65,0,0,1,7.66-2.22,5.17,5.17,0,0,1,.85-1.32,3.1,3.1,0,0,1,.75-.57l2.65-.76.19.1a5.45,5.45,0,0,0-.9,1.18c-.28.47-.58,1-.9,1.46.32,0,.79,0,1.42.1s1.1.13,1.42.19.47.28.47.47a.24.24,0,0,1-.28.28,8.12,8.12,0,0,0-1.7-.28q-1.14-.09-1.71-.09Q95.64,55.52,93.61,60t-2,6.67A2.25,2.25,0,0,0,92,68.09a2.09,2.09,0,0,0,1.75.57,8,8,0,0,0,3.59-1.09,26.73,26.73,0,0,0,4.44-3,60.78,60.78,0,0,0,4.87-4.49,70.32,70.32,0,0,0,4.77-5.39c.13-.19.25-.24.38-.14A.48.48,0,0,1,112,55ZM97.25,47.77A9.9,9.9,0,0,0,91.11,50a26.89,26.89,0,0,0-5.2,5.34,33.7,33.7,0,0,0-3.64,6.1,12.48,12.48,0,0,0-1.37,4.44c0,.5.19.76.57.76a4,4,0,0,0,1.75-.76,26.7,26.7,0,0,0,2.69-2,33.88,33.88,0,0,0,3.07-3,31.17,31.17,0,0,0,2.89-3.69Q93.37,55,94.8,52.4t2.55-4.53Z"/></svg>